<svg width="279" height="65" viewBox="0 0 279 65" fill="none" xmlns="http://www.w3.org/2000/svg">
<path d="M255.654 46.2591C252.033 46.2591 249.025 45.6458 246.63 44.4193C244.236 43.1927 242.454 41.5573 241.286 39.513C240.118 37.4103 239.534 35.1616 239.534 32.7669C239.534 29.8465 240.293 27.3641 241.812 25.3199C243.33 23.2172 245.491 21.611 248.295 20.5012C251.099 19.3914 254.457 18.8366 258.37 18.8366H269.848C269.848 16.2666 269.468 14.1347 268.709 12.4409C267.949 10.7471 266.81 9.4913 265.292 8.67359C263.832 7.79747 261.962 7.35941 259.685 7.35941C257.056 7.35941 254.808 8.00189 252.938 9.28687C251.069 10.5134 249.901 12.3533 249.434 14.8064H240.673C241.023 11.7108 242.075 9.08244 243.827 6.92135C245.637 4.70184 247.945 3.00801 250.748 1.83985C253.552 0.613286 256.531 0 259.685 0C263.832 0 267.307 0.7301 270.11 2.1903C272.914 3.6505 275.017 5.72398 276.418 8.41075C277.879 11.0391 278.609 14.1931 278.609 17.8728V45.2078H270.987L270.286 37.7608C269.643 38.9289 268.884 40.0387 268.008 41.09C267.132 42.1413 266.08 43.0467 264.854 43.806C263.686 44.5653 262.313 45.1494 260.736 45.5582C259.217 46.0255 257.523 46.2591 255.654 46.2591ZM257.319 39.1625C259.188 39.1625 260.882 38.7829 262.401 38.0236C263.919 37.2643 265.204 36.2421 266.255 34.9572C267.365 33.6138 268.183 32.1244 268.709 30.489C269.293 28.7951 269.614 27.0721 269.672 25.3199V25.057H259.247C256.735 25.057 254.691 25.3783 253.114 26.0208C251.595 26.6048 250.485 27.4225 249.784 28.4739C249.084 29.5252 248.733 30.7518 248.733 32.1536C248.733 33.6138 249.054 34.8696 249.697 35.9209C250.398 36.9138 251.391 37.7024 252.676 38.2864C253.961 38.8705 255.508 39.1625 257.319 39.1625Z" fill="black"/>
<path d="M213.703 45.2078V1.05135H221.588L222.376 9.37448C223.369 7.38861 224.654 5.72398 226.231 4.3806C227.808 2.97881 229.648 1.89826 231.751 1.13896C233.912 0.379653 236.365 0 239.11 0V9.28687H235.956C234.145 9.28687 232.422 9.5205 230.787 9.98777C229.152 10.3966 227.691 11.1267 226.406 12.1781C225.18 13.2294 224.216 14.6604 223.515 16.4711C222.814 18.2817 222.464 20.5304 222.464 23.2172V45.2078H213.703Z" fill="black"/>
<path d="M189.075 46.2591C184.869 46.2591 181.131 45.2954 177.861 43.3679C174.59 41.4405 172.02 38.7537 170.151 35.3076C168.34 31.8616 167.435 27.8606 167.435 23.3048C167.435 18.6321 168.34 14.5728 170.151 11.1267C172.02 7.62224 174.59 4.90627 177.861 2.97881C181.131 0.992936 184.928 0 189.25 0C193.572 0 197.281 0.963735 200.377 2.8912C203.472 4.81866 205.867 7.38861 207.561 10.601C209.255 13.7551 210.102 17.2596 210.102 21.1145C210.102 21.6986 210.073 22.3411 210.014 23.0419C210.014 23.6844 209.985 24.4145 209.926 25.2322H173.83V19.0118H201.341C201.165 15.3321 199.939 12.4701 197.661 10.4258C195.383 8.32314 192.55 7.27179 189.162 7.27179C186.768 7.27179 184.577 7.82667 182.592 8.93642C180.606 9.98777 178.999 11.5648 177.773 13.6675C176.605 15.7117 176.021 18.3109 176.021 21.4649V23.9181C176.021 27.1889 176.605 29.9633 177.773 32.2412C178.999 34.4607 180.606 36.1545 182.592 37.3227C184.577 38.4324 186.739 38.9873 189.075 38.9873C191.878 38.9873 194.186 38.374 195.996 37.1475C197.807 35.9209 199.15 34.2563 200.026 32.1536H208.788C208.028 34.8404 206.743 37.2643 204.933 39.4254C203.122 41.5281 200.873 43.1927 198.186 44.4193C195.558 45.6458 192.521 46.2591 189.075 46.2591Z" fill="black"/>
<path d="M119.619 64.4824V1.05135H127.504L128.38 7.88508C129.315 6.5417 130.483 5.28592 131.885 4.11776C133.287 2.8912 134.951 1.89826 136.879 1.13896C138.864 0.379653 141.172 0 143.8 0C148.005 0 151.685 1.02214 154.839 3.06642C158.051 5.1107 160.534 7.88508 162.286 11.3896C164.097 14.8356 165.002 18.7782 165.002 23.2172C165.002 27.6562 164.097 31.6279 162.286 35.1324C160.475 38.5785 157.964 41.2944 154.751 43.2803C151.597 45.2662 147.918 46.2591 143.712 46.2591C140.266 46.2591 137.229 45.5874 134.601 44.244C131.972 42.8423 129.899 40.9148 128.38 38.4617V64.4824H119.619ZM142.311 38.6369C144.997 38.6369 147.363 37.9944 149.407 36.7094C151.51 35.4244 153.145 33.6138 154.313 31.2775C155.54 28.9412 156.153 26.2252 156.153 23.1296C156.153 20.0339 155.54 17.3472 154.313 15.0693C153.145 12.7329 151.51 10.9223 149.407 9.63732C147.363 8.29393 144.997 7.62224 142.311 7.62224C139.565 7.62224 137.141 8.29393 135.039 9.63732C132.994 10.9223 131.388 12.7329 130.22 15.0693C129.052 17.3472 128.468 20.0339 128.468 23.1296C128.468 26.2252 129.052 28.9412 130.22 31.2775C131.388 33.6138 132.994 35.4244 135.039 36.7094C137.141 37.9944 139.565 38.6369 142.311 38.6369Z" fill="black"/>
<path d="M46.268 45.2078V1.05135H54.1531L54.7663 7.27179C56.1681 4.99388 58.0372 3.21244 60.3735 1.92746C62.7098 0.642489 65.3382 0 68.2586 0C70.4781 0 72.4932 0.321248 74.3038 0.963737C76.1144 1.54781 77.7207 2.45314 79.1225 3.6797C80.5242 4.90627 81.6632 6.42488 82.5393 8.23553C84.1163 5.66557 86.219 3.6505 88.8474 2.1903C91.5341 0.7301 94.3669 0 97.3457 0C100.909 0 103.975 0.7301 106.545 2.1903C109.115 3.59209 111.072 5.72398 112.415 8.58597C113.758 11.3896 114.43 14.894 114.43 19.0994V45.2078H105.756V19.9755C105.756 15.887 104.91 12.7913 103.216 10.6887C101.58 8.58597 99.1564 7.53463 95.944 7.53463C93.7829 7.53463 91.8554 8.08951 90.1616 9.19926C88.4677 10.309 87.1243 11.9152 86.1314 14.0179C85.1969 16.1206 84.7296 18.6906 84.7296 21.7278V45.2078H75.9684V19.9755C75.9684 15.887 75.1215 12.7913 73.4277 10.6887C71.7923 8.58597 69.3683 7.53463 66.1559 7.53463C64.1116 7.53463 62.2426 8.08951 60.5487 9.19926C58.8549 10.309 57.5115 11.9152 56.5186 14.0179C55.5256 16.1206 55.0292 18.6906 55.0292 21.7278V45.2078H46.268Z" fill="black"/>
<path d="M21.6402 46.2591C17.4348 46.2591 13.6967 45.2954 10.4258 43.3679C7.15498 41.4405 4.58503 38.7537 2.71597 35.3076C0.905324 31.8616 0 27.8606 0 23.3048C0 18.6321 0.905324 14.5728 2.71597 11.1267C4.58503 7.62224 7.15498 4.90627 10.4258 2.97881C13.6967 0.992936 17.4932 0 21.8154 0C26.1376 0 29.8465 0.963735 32.9421 2.8912C36.0377 4.81866 38.4324 7.38861 40.1263 10.601C41.8201 13.7551 42.667 17.2596 42.667 21.1145C42.667 21.6986 42.6378 22.3411 42.5794 23.0419C42.5794 23.6844 42.5502 24.4145 42.4918 25.2322H6.39567V19.0118H33.9058C33.7306 15.3321 32.504 12.4701 30.2261 10.4258C27.9482 8.32314 25.1154 7.27179 21.7278 7.27179C19.333 7.27179 17.1427 7.82667 15.1569 8.93642C13.171 9.98777 11.5648 11.5648 10.3382 13.6675C9.17005 15.7117 8.58597 18.3109 8.58597 21.4649V23.9181C8.58597 27.1889 9.17005 29.9633 10.3382 32.2412C11.5648 34.4607 13.171 36.1545 15.1569 37.3227C17.1427 38.4324 19.3038 38.9873 21.6402 38.9873C24.4437 38.9873 26.7509 38.374 28.5615 37.1475C30.3721 35.9209 31.7155 34.2563 32.5916 32.1536H41.3528C40.5935 34.8404 39.3086 37.2643 37.4979 39.4254C35.6873 41.5281 33.4386 43.1927 30.7518 44.4193C28.1234 45.6458 25.0862 46.2591 21.6402 46.2591Z" fill="black"/>
</svg>
