<svg width="97" height="18" viewBox="0 0 97 18" fill="none" xmlns="http://www.w3.org/2000/svg">
<path d="M11.6094 14.0703V17H0.40625V0.0898438H11.6094V3.00781H3.94531V7.08594H11.1758V9.80469H3.94531V14.0703H11.6094ZM18.5352 17.1992C15.3945 17.1992 13.4141 14.7148 13.4141 10.6953C13.4141 6.71094 15.4062 4.23828 18.5586 4.23828C20.375 4.23828 21.7812 5.19922 22.3906 6.59375H22.4609V0.0898438H25.8828V17H22.5078V14.8438H22.4492C21.8398 16.2266 20.3867 17.1992 18.5352 17.1992ZM19.6953 6.98047C17.9727 6.98047 16.918 8.42188 16.918 10.7188C16.918 13.0273 17.9727 14.4453 19.6953 14.4453C21.3945 14.4453 22.4844 13.0156 22.4844 10.7188C22.4844 8.43359 21.3945 6.98047 19.6953 6.98047ZM39.7695 4.4375V17H36.4648V14.7383H36.3945C35.7734 16.3203 34.5312 17.2344 32.6328 17.2344C29.9141 17.2344 28.1094 15.4648 28.1094 12.5352V4.4375H31.5312V11.8203C31.5312 13.4961 32.3633 14.3867 33.875 14.3867C35.3984 14.3867 36.3477 13.2969 36.3477 11.6328V4.4375H39.7695Z" fill="#3F87D9"/>
<path d="M42.5234 0.0898438H48.5586C51.7344 0.0898438 53.9727 2.31641 53.9727 5.51562C53.9727 8.72656 51.7109 10.9648 48.5352 10.9648H44.6328V17H42.5234V0.0898438ZM44.6328 1.96484V9.08984H48.0078C50.4219 9.08984 51.8047 7.76562 51.8047 5.51562C51.8047 3.27734 50.4336 1.96484 48.0078 1.96484H44.6328ZM60.5469 17.2109C57.1719 17.2109 54.8984 14.7852 54.8984 10.9062C54.8984 7.01562 57.1719 4.60156 60.5469 4.60156C63.9102 4.60156 66.1836 7.01562 66.1836 10.9062C66.1836 14.7852 63.9102 17.2109 60.5469 17.2109ZM60.5469 15.418C62.7031 15.418 64.1094 13.7773 64.1094 10.9062C64.1094 8.03516 62.7031 6.39453 60.5469 6.39453C58.3906 6.39453 56.9727 8.03516 56.9727 10.9062C56.9727 13.7773 58.3906 15.418 60.5469 15.418ZM68.2461 17V4.8125H70.168V6.80469H70.2148C70.6133 5.45703 71.7383 4.60156 73.168 4.60156C73.5195 4.60156 73.8242 4.66016 73.9883 4.68359V6.66406C73.8242 6.60547 73.3906 6.54688 72.8984 6.54688C71.3164 6.54688 70.2852 7.68359 70.2852 9.40625V17H68.2461ZM76.3086 1.87109H78.3477V4.8125H80.7148V6.48828H78.3477V13.7305C78.3477 14.8438 78.8164 15.3477 79.8594 15.3477C80.0938 15.3477 80.5625 15.3125 80.7031 15.2891V17C80.457 17.0586 79.8945 17.0938 79.4141 17.0938C77.1758 17.0938 76.3086 16.1797 76.3086 13.8359V6.48828H74.4922V4.8125H76.3086V1.87109ZM86.6797 15.4766C88.6016 15.4766 90.0781 14.1289 90.0781 12.3711V11.375L86.8203 11.5742C85.1797 11.6797 84.2422 12.4062 84.2422 13.5547C84.2422 14.7148 85.2148 15.4766 86.6797 15.4766ZM86.2227 17.2109C83.7969 17.2109 82.168 15.7461 82.168 13.5547C82.168 11.4688 83.7734 10.1562 86.5859 9.99219L90.0781 9.79297V8.77344C90.0781 7.28516 89.0938 6.39453 87.4062 6.39453C85.8359 6.39453 84.8516 7.13281 84.5938 8.32812H82.625C82.7656 6.21875 84.5703 4.60156 87.4531 4.60156C90.3125 4.60156 92.1172 6.14844 92.1172 8.57422V17H90.1836V14.9023H90.1367C89.4102 16.2969 87.8633 17.2109 86.2227 17.2109ZM94.8125 17V0.0898438H96.8516V17H94.8125Z" fill="#282828"/>
</svg>
