<svg width="35" height="35" viewBox="0 0 35 35" fill="none" xmlns="http://www.w3.org/2000/svg">
<circle cx="17.2222" cy="17.2222" r="16.7917" fill="white" stroke="#E4E4E4" stroke-width="0.861111"/>
<g clip-path="url(#clip0_241_1391)">
<path d="M21.1994 6.88892H21.3464C21.4644 8.34637 20.9081 9.43538 20.232 10.224C19.5686 11.0072 18.6602 11.7668 17.191 11.6515C17.0929 10.2149 17.6502 9.20669 18.3253 8.41988C18.9515 7.68661 20.0995 7.03412 21.1994 6.88892ZM25.6471 22.0588V22.0996C25.2342 23.3502 24.6452 24.422 23.9265 25.4166C23.2703 26.3196 22.4663 27.5347 21.0306 27.5347C19.7901 27.5347 18.966 26.737 17.6946 26.7152C16.3497 26.6934 15.6101 27.3822 14.3804 27.5556H13.9611C13.0582 27.4249 12.3294 26.7098 11.7985 26.0655C10.2331 24.1615 9.02339 21.7022 8.79832 18.5549V17.6302C8.89361 15.3777 9.98807 13.5464 11.4428 12.6588C12.2106 12.1869 13.266 11.7849 14.4412 11.9646C14.9449 12.0427 15.4594 12.2151 15.9105 12.3857C16.3379 12.5499 16.8724 12.8413 17.3788 12.8258C17.7218 12.8158 18.0631 12.6371 18.4088 12.5109C19.4216 12.1452 20.4144 11.7259 21.723 11.9229C23.2958 12.1606 24.412 12.8594 25.1017 13.9375C23.7713 14.7842 22.7195 16.0602 22.8992 18.2391C23.0589 20.2184 24.2096 21.3764 25.6471 22.0588Z" fill="black"/>
</g>
<defs>
<clipPath id="clip0_241_1391">
<rect width="20.6667" height="20.6667" fill="white" transform="translate(6.8889 6.88892)"/>
</clipPath>
</defs>
</svg>
