<svg width="22" height="22" viewBox="0 0 22 22" fill="none" xmlns="http://www.w3.org/2000/svg">
<path fill-rule="evenodd" clip-rule="evenodd" d="M5.99057 2.97919C5.72643 2.97927 5.4664 3.04458 5.23357 3.16931C5.00074 3.29404 4.80231 3.47434 4.6559 3.69419L1.36598 8.62769C1.16523 8.93019 1.1414 9.31702 1.30365 9.64152C3.10507 13.2416 5.60694 16.4459 8.66265 19.0667L10.2668 20.4426C10.4712 20.6178 10.7315 20.7141 11.0006 20.7141C11.2698 20.7141 11.53 20.6178 11.7344 20.4426L13.3386 19.0676C16.3947 16.4467 18.8969 13.242 20.6985 9.64152C20.8607 9.31702 20.836 8.93019 20.6352 8.62769L17.3435 3.69419C17.1971 3.47464 16.9987 3.2946 16.7661 3.17004C16.5334 3.04548 16.2736 2.98024 16.0097 2.9801L5.99057 2.97919ZM5.7999 4.45594C5.82086 4.4246 5.84923 4.39892 5.88249 4.38117C5.91575 4.36343 5.95287 4.35416 5.99057 4.35419H8.13557L6.38015 8.56719C6.34114 8.66401 6.31048 8.76398 6.28848 8.86602C5.64291 8.81787 4.99811 8.7598 4.35432 8.69185L3.0664 8.5571L5.7999 4.45594ZM3.00682 9.93302C4.65251 12.9502 6.82363 15.6493 9.41798 17.9034L6.5534 10.2639C5.77185 10.2102 4.99134 10.1424 4.21223 10.0604L3.00682 9.93302ZM8.05398 10.3492L11.0002 18.2087L13.9472 10.3492C11.9835 10.4382 10.0168 10.4382 8.05307 10.3492M15.4478 10.2639L12.5832 17.9034C15.1776 15.6493 17.3487 12.9502 18.9944 9.93302L17.789 10.0604C17.0098 10.1417 16.2294 10.2095 15.4478 10.2639ZM18.9339 8.5571L17.6451 8.69277C17.0013 8.76072 16.3565 8.81878 15.7109 8.86694C15.6893 8.76461 15.6589 8.66433 15.6202 8.56719L13.8647 4.35419H16.0097C16.0474 4.35416 16.0846 4.36343 16.1178 4.38117C16.1511 4.39892 16.1794 4.4246 16.2004 4.45594L18.9339 8.5571ZM14.2928 8.95585C12.0983 9.06952 9.90321 9.06952 7.70748 8.95585L9.62515 4.35419H12.3752L14.2928 8.95585Z" fill="#4A4A4A"/>
</svg>
