<svg width="35" height="35" viewBox="0 0 35 35" fill="none" xmlns="http://www.w3.org/2000/svg">
<circle cx="17.2222" cy="17.2222" r="16.7917" fill="white" stroke="#E4E4E4" stroke-width="0.861111"/>
<g clip-path="url(#clip0_241_1381)">
<path d="M26.7752 15.4256L18.3454 15.4252C17.9732 15.4252 17.6715 15.7269 17.6715 16.0991V18.792C17.6715 19.1642 17.9732 19.4659 18.3454 19.4659H23.0925C22.5727 20.815 21.6025 21.9447 20.3647 22.6626L22.3888 26.1666C25.6359 24.2887 27.5555 20.9938 27.5555 17.3054C27.5555 16.7802 27.5168 16.4047 27.4394 15.982C27.3805 15.6608 27.1017 15.4256 26.7752 15.4256Z" fill="#167EE6"/>
<path d="M17.2222 23.512C14.8991 23.512 12.871 22.2427 11.7818 20.3644L8.27788 22.384C10.061 25.4744 13.4013 27.5555 17.2222 27.5555C19.0966 27.5555 20.8653 27.0508 22.3889 26.1713V26.1665L20.3647 22.6625C19.4388 23.1995 18.3674 23.512 17.2222 23.512Z" fill="#12B347"/>
<path d="M22.3889 26.1714V26.1666L20.3647 22.6625C19.4388 23.1995 18.3675 23.5121 17.2222 23.5121V27.5556C19.0966 27.5556 20.8654 27.0509 22.3889 26.1714Z" fill="#0F993E"/>
<path d="M10.9324 17.2222C10.9324 16.0771 11.2449 15.0058 11.7818 14.08L8.27787 12.0604C7.39352 13.5792 6.88889 15.343 6.88889 17.2222C6.88889 19.1014 7.39352 20.8653 8.27787 22.3841L11.7818 20.3645C11.2449 19.4386 10.9324 18.3673 10.9324 17.2222Z" fill="#FFD500"/>
<path d="M17.2222 10.9324C18.7371 10.9324 20.1287 11.4707 21.2156 12.3661C21.4837 12.587 21.8734 12.571 22.1191 12.3254L24.0271 10.4174C24.3058 10.1387 24.2859 9.68255 23.9882 9.4243C22.1672 7.84447 19.7978 6.88892 17.2222 6.88892C13.4013 6.88892 10.061 8.96999 8.27788 12.0604L11.7818 14.08C12.871 12.2017 14.8991 10.9324 17.2222 10.9324Z" fill="#FF4B26"/>
<path d="M21.2156 12.3661C21.4837 12.587 21.8735 12.571 22.119 12.3254L24.0271 10.4174C24.3057 10.1387 24.2859 9.68255 23.9882 9.4243C22.1672 7.84443 19.7978 6.88892 17.2222 6.88892V10.9324C18.7371 10.9324 20.1287 11.4707 21.2156 12.3661Z" fill="#D93F21"/>
</g>
<defs>
<clipPath id="clip0_241_1381">
<rect width="20.6667" height="20.6667" fill="white" transform="translate(6.88884 6.88892)"/>
</clipPath>
</defs>
</svg>
