<svg width="140" height="140" viewBox="0 0 140 140" fill="none" xmlns="http://www.w3.org/2000/svg">
<path d="M70 0C108.66 0 140 31.3401 140 70C140 108.66 108.66 140 70 140C31.3401 140 0 108.66 0 70C0 31.3401 31.3401 0 70 0ZM53.2051 51.2588L21.0771 89.666C19.3469 91.7347 19.6211 94.8143 21.6895 96.5449C23.7583 98.2753 26.8388 98.0013 28.5693 95.9326L54.0146 65.5127L59.3311 94.6689C59.815 97.3224 62.3593 99.0816 65.0127 98.5977C67.6656 98.1136 69.4238 95.5709 68.9404 92.918L61.7549 53.5156L59.8857 43.2705L53.2051 51.2588ZM81.041 45.2607C80.557 42.6074 78.0127 40.8481 75.3594 41.332C72.7063 41.8161 70.948 44.3596 71.4316 47.0127L78.6172 86.4141L80.4863 96.6602L87.167 88.6719L119.295 50.2637C121.025 48.1949 120.751 45.1152 118.683 43.3848C116.614 41.6544 113.533 41.9284 111.803 43.9971L86.3584 74.418L81.041 45.2607Z" fill="#D16DF2"/>
</svg>
