<svg width="22" height="22" viewBox="0 0 22 22" fill="none" xmlns="http://www.w3.org/2000/svg">
<path d="M18.0085 4.24326C16.1265 3.11409 13.6374 2.49219 10.9998 2.49219C8.36226 2.49219 5.87321 3.11409 3.99125 4.24326C2.00846 5.4329 0.916504 7.04915 0.916504 8.79427V13.2057C0.916504 14.9509 2.00846 16.5671 3.99125 17.7567C5.87321 18.8859 8.36226 19.5078 10.9998 19.5078C13.6374 19.5078 16.1265 18.8859 18.0085 17.7567C19.9912 16.5671 21.0832 14.9509 21.0832 13.2057V8.79427C21.0832 7.04915 19.9912 5.4329 18.0085 4.24326ZM4.6397 5.32403C6.32865 4.31069 8.58736 3.7526 10.9998 3.7526C13.4123 3.7526 15.6711 4.31069 17.36 5.32403C18.9481 6.27694 19.8228 7.50935 19.8228 8.79427C19.8228 10.0792 18.9481 11.3116 17.36 12.2645C15.6711 13.2778 13.4123 13.8359 10.9998 13.8359C8.58736 13.8359 6.32865 13.2778 4.6397 12.2645C3.05157 11.3116 2.17692 10.0792 2.17692 8.79427C2.17692 7.50935 3.05157 6.27694 4.6397 5.32403ZM16.0415 14.2654V17.3291C15.2672 17.6433 14.4181 17.881 13.5207 18.0358V14.9009C14.4054 14.761 15.2525 14.5476 16.0415 14.2654ZM8.479 14.9009V18.0357C7.58159 17.881 6.73254 17.6433 5.95817 17.329V14.2653C6.74715 14.5476 7.59427 14.761 8.479 14.9009ZM2.17692 13.2057V11.8758C2.65493 12.4133 3.26269 12.9082 3.99125 13.3453C4.21813 13.4814 4.45406 13.61 4.69779 13.7312V16.7099C4.67849 16.6985 4.65888 16.6874 4.63974 16.6759C3.05157 15.7231 2.17692 14.4906 2.17692 13.2057ZM9.73942 18.1954V15.0482C10.5785 15.1124 11.4212 15.1124 12.2603 15.0482V18.1954C11.4214 18.2647 10.5783 18.2647 9.73942 18.1954ZM19.8228 13.2057C19.8228 14.4906 18.9481 15.7231 17.36 16.676C17.3408 16.6875 17.3212 16.6986 17.3019 16.71V13.7312C17.5424 13.6119 17.7781 13.4831 18.0085 13.3453C18.737 12.9082 19.3447 12.4133 19.8228 11.8758V13.2057H19.8228Z" fill="#4A4A4A"/>
</svg>
