<svg width="18" height="18" viewBox="0 0 18 18" fill="none" xmlns="http://www.w3.org/2000/svg">
<path d="M8.48138 2.25C8.377 2.25 8.27468 2.27905 8.18587 2.33388C8.09706 2.38872 8.02526 2.46718 7.9785 2.5605L6.1875 6.1425L6.1875 15.75L13.2626 15.75C13.9331 15.75 14.5816 15.5105 15.0911 15.0747C15.6006 14.6388 15.9376 14.0353 16.0414 13.3729L16.7693 8.73338C16.8069 8.49263 16.792 8.24657 16.7256 8.01213C16.6591 7.77768 16.5427 7.56041 16.3842 7.37526C16.2258 7.19011 16.0292 7.04147 15.8078 6.93955C15.5865 6.83763 15.3457 6.78487 15.102 6.78488L11.3861 6.78488L11.5571 5.41237C11.6067 5.01665 11.5716 4.61489 11.4541 4.23377C11.3366 3.85265 11.1394 3.50088 10.8755 3.20181C10.6116 2.90274 10.2872 2.66321 9.9237 2.49911C9.5602 2.33501 9.16595 2.25009 8.76713 2.25H8.48138ZM5.0625 15.75L5.0625 6.78488H2.8125C2.66332 6.78488 2.52024 6.84414 2.41475 6.94963C2.30926 7.05512 2.25 7.19819 2.25 7.34738L2.25 15.1875C2.25 15.3367 2.30926 15.4798 2.41475 15.5852C2.52024 15.6907 2.66332 15.75 2.8125 15.75H5.0625Z" fill="#F4AB0D"/>
</svg>
