<svg width="22" height="21" viewBox="0 0 22 21" fill="none" xmlns="http://www.w3.org/2000/svg">
<path d="M6 6.75C6 6.55109 6.07902 6.36032 6.21967 6.21967C6.36032 6.07902 6.55109 6 6.75 6H10.75C10.9489 6 11.1397 6.07902 11.2803 6.21967C11.421 6.36032 11.5 6.55109 11.5 6.75C11.5 6.94891 11.421 7.13968 11.2803 7.28033C11.1397 7.42098 10.9489 7.5 10.75 7.5H6.75C6.55109 7.5 6.36032 7.42098 6.21967 7.28033C6.07902 7.13968 6 6.94891 6 6.75ZM6 10.75C6 10.5511 6.07902 10.3603 6.21967 10.2197C6.36032 10.079 6.55109 10 6.75 10H14.75C14.9489 10 15.1397 10.079 15.2803 10.2197C15.421 10.3603 15.5 10.5511 15.5 10.75C15.5 10.9489 15.421 11.1397 15.2803 11.2803C15.1397 11.421 14.9489 11.5 14.75 11.5H6.75C6.55109 11.5 6.36032 11.421 6.21967 11.2803C6.07902 11.1397 6 10.9489 6 10.75Z" fill="currentColor"/>
<path fill-rule="evenodd" clip-rule="evenodd" d="M8.716 0H12.784C14.155 0 15.231 5.21541e-08 16.095 0.0700001C16.975 0.143 17.702 0.291 18.36 0.627C19.442 1.17829 20.3217 2.05799 20.873 3.14C21.209 3.798 21.357 4.525 21.429 5.405C21.5 6.269 21.5 7.345 21.5 8.716V10.081C21.5 11.63 21.5 12.574 21.268 13.368C20.9969 14.2928 20.4976 15.1347 19.8161 15.8161C19.1347 16.4976 18.2928 16.9969 17.368 17.268C16.574 17.5 15.63 17.5 14.081 17.5H13.325C12.4581 17.5058 11.6136 17.7766 10.905 18.276L10.855 18.311L8.245 20.176C6.74 21.25 4.762 19.698 5.45 17.982C5.47147 17.9286 5.4795 17.8708 5.47336 17.8136C5.46723 17.7564 5.44713 17.7016 5.41483 17.6539C5.38253 17.6063 5.33902 17.5674 5.28813 17.5405C5.23724 17.5137 5.18053 17.4998 5.123 17.5H4.522C3.32269 17.5 2.1725 17.0236 1.32446 16.1755C0.476424 15.3275 0 14.1773 0 12.978V8.716C0 7.345 5.21541e-08 6.269 0.0700001 5.405C0.143 4.525 0.291 3.798 0.627 3.14C1.17829 2.05799 2.05799 1.17829 3.14 0.627C3.798 0.291 4.525 0.143 5.405 0.071C6.269 -2.23517e-08 7.345 0 8.716 0ZM5.527 1.566C4.74 1.63 4.232 1.754 3.821 1.963C3.02095 2.37052 2.37052 3.02095 1.963 3.821C1.753 4.232 1.63 4.74 1.566 5.527C1.501 6.323 1.5 7.337 1.5 8.75V12.978C1.5 13.7795 1.81839 14.5481 2.38512 15.1149C2.66574 15.3955 2.99888 15.6181 3.36553 15.77C3.73218 15.9218 4.12514 16 4.522 16H5.123C5.42568 15.9997 5.7238 16.0737 5.99125 16.2154C6.2587 16.3571 6.48732 16.5623 6.65708 16.8129C6.82684 17.0634 6.93255 17.3518 6.96497 17.6528C6.99738 17.9537 6.9555 18.258 6.843 18.539C6.712 18.865 7.087 19.159 7.373 18.955L10.04 17.05C10.9993 16.3739 12.1424 16.0075 13.316 16H13.934C15.676 16 16.386 15.992 16.946 15.828C17.6294 15.6276 18.2514 15.2586 18.755 14.755C19.2586 14.2514 19.6276 13.6294 19.828 12.946C19.992 12.386 20 11.676 20 9.934V8.75C20 7.337 20 6.323 19.934 5.527C19.87 4.74 19.746 4.232 19.537 3.821C19.1297 3.02111 18.4797 2.37069 17.68 1.963C17.268 1.753 16.76 1.63 15.973 1.566C15.177 1.501 14.163 1.5 12.75 1.5H8.75C7.337 1.5 6.323 1.5 5.527 1.566Z" fill="currentColor"/>
</svg>
