<svg width="19" height="15" viewBox="0 0 19 15" fill="none" xmlns="http://www.w3.org/2000/svg">
<path d="M17.1737 7.4099C16.8211 7.05727 16.4049 6.77453 15.9471 6.57657C16.2552 6.35715 16.514 6.07554 16.7065 5.74991C16.8991 5.42429 17.0212 5.0619 17.065 4.68614C17.1088 4.31038 17.0733 3.92962 16.9607 3.56844C16.8482 3.20727 16.6612 2.87371 16.4117 2.58931C16.1623 2.30492 15.8559 2.07601 15.5125 1.91737C15.1691 1.75873 14.7962 1.67389 14.4179 1.66833C14.0397 1.66278 13.6644 1.73662 13.3165 1.88509C12.9686 2.03357 12.6556 2.25338 12.3979 2.53032C12.2196 1.80812 11.8044 1.16649 11.2187 0.707851C10.633 0.24921 9.91056 0 9.16667 0C8.42277 0 7.70031 0.24921 7.11463 0.707851C6.52894 1.16649 6.11378 1.80812 5.93542 2.53032C5.67776 2.25304 5.36478 2.03292 5.01671 1.8842C4.66864 1.73548 4.29323 1.66146 3.91476 1.66693C3.53629 1.6724 3.16318 1.75724 2.81956 1.91597C2.47593 2.07469 2.16945 2.30377 1.91991 2.58838C1.67038 2.87299 1.48336 3.2068 1.37093 3.56823C1.25851 3.92966 1.2232 4.31066 1.26727 4.6866C1.31134 5.06254 1.43382 5.42504 1.62678 5.75067C1.81975 6.0763 2.07891 6.3578 2.3875 6.57699C1.67909 6.88402 1.07576 7.39126 0.651628 8.03642C0.227493 8.68158 0.00101187 9.43656 0 10.2087V12.0837C0.000661607 12.636 0.220367 13.1655 0.610925 13.5561C1.00148 13.9466 1.531 14.1663 2.08333 14.167H5.01083C5.20327 14.4248 5.45307 14.6343 5.74045 14.779C6.02784 14.9236 6.34494 14.9994 6.66667 15.0003H11.6667C11.9884 14.9994 12.3055 14.9236 12.5929 14.779C12.8803 14.6343 13.1301 14.4248 13.3225 14.167H16.25C16.8023 14.1663 17.3319 13.9466 17.7224 13.5561C18.113 13.1655 18.3327 12.636 18.3333 12.0837V10.2087C18.3348 9.68864 18.233 9.17351 18.034 8.69309C17.8349 8.21268 17.5425 7.77653 17.1737 7.4099ZM14.375 2.50032C14.7458 2.50032 15.1084 2.61029 15.4167 2.81631C15.725 3.02234 15.9654 3.31518 16.1073 3.65779C16.2492 4.0004 16.2863 4.3774 16.214 4.74111C16.1416 5.10483 15.963 5.43892 15.7008 5.70114C15.4386 5.96337 15.1045 6.14194 14.7408 6.21429C14.3771 6.28664 14.0001 6.24951 13.6575 6.10759C13.3149 5.96568 13.022 5.72536 12.816 5.41701C12.61 5.10867 12.5 4.74616 12.5 4.37532C12.5006 3.87821 12.6983 3.40161 13.0498 3.0501C13.4013 2.69859 13.8779 2.50087 14.375 2.50032ZM12.1442 6.93949C11.7726 6.62 11.3521 6.36227 10.8987 6.17615C11.2641 5.95249 11.5833 5.66101 11.8392 5.3174C12.0284 5.82481 12.3651 6.26404 12.8058 6.57865C12.5744 6.67782 12.3529 6.79863 12.1442 6.93949ZM9.16667 0.833653C9.66112 0.833653 10.1445 0.980275 10.5556 1.25498C10.9667 1.52968 11.2871 1.92013 11.4764 2.37694C11.6656 2.83376 11.7151 3.33643 11.6186 3.82138C11.5222 4.30633 11.2841 4.75179 10.9344 5.10142C10.5848 5.45105 10.1393 5.68915 9.65439 5.78562C9.16944 5.88208 8.66677 5.83257 8.20996 5.64335C7.75314 5.45413 7.3627 5.1337 7.08799 4.72258C6.81329 4.31146 6.66667 3.82811 6.66667 3.33365C6.66733 2.67081 6.93093 2.03531 7.39963 1.56662C7.86833 1.09792 8.50383 0.834315 9.16667 0.833653ZM6.18917 6.93949C5.98047 6.79863 5.75893 6.67782 5.5275 6.57865C5.96828 6.26404 6.30492 5.82481 6.49417 5.3174C6.75001 5.66101 7.06922 5.95249 7.43458 6.17615C6.98125 6.36227 6.56076 6.62 6.18917 6.93949ZM2.08333 4.37532C2.08333 4.00448 2.1933 3.64197 2.39933 3.33363C2.60536 3.02528 2.89819 2.78496 3.2408 2.64305C3.58341 2.50113 3.96041 2.464 4.32413 2.53635C4.68784 2.60869 5.02193 2.78727 5.28416 3.04949C5.54638 3.31172 5.72496 3.64581 5.79731 4.00952C5.86965 4.37324 5.83252 4.75024 5.69061 5.09285C5.54869 5.43546 5.30837 5.7283 5.00003 5.93432C4.69169 6.14035 4.32917 6.25032 3.95833 6.25032C3.46122 6.24977 2.98463 6.05205 2.63312 5.70054C2.28161 5.34902 2.08388 4.87243 2.08333 4.37532ZM2.08333 13.3337C1.75181 13.3337 1.43387 13.202 1.19945 12.9675C0.965029 12.7331 0.833333 12.4152 0.833333 12.0837V10.2087C0.832529 9.65243 0.980414 9.10611 1.26168 8.62624C1.54294 8.14637 1.94736 7.75041 2.43306 7.47934C2.91876 7.20828 3.46809 7.07197 4.02416 7.08452C4.58024 7.09707 5.12286 7.25803 5.59583 7.55074C4.94023 8.36211 4.58284 9.37385 4.58333 10.417V12.917C4.58319 13.0569 4.59715 13.1965 4.625 13.3337H2.08333ZM12.9167 12.917C12.9167 13.2485 12.785 13.5664 12.5505 13.8009C12.3161 14.0353 11.9982 14.167 11.6667 14.167H6.66667C6.33515 14.167 6.0172 14.0353 5.78278 13.8009C5.54836 13.5664 5.41667 13.2485 5.41667 12.917V10.417C5.41667 9.42242 5.81176 8.4686 6.51502 7.76534C7.21828 7.06207 8.1721 6.66699 9.16667 6.66699C10.1612 6.66699 11.1151 7.06207 11.8183 7.76534C12.5216 8.4686 12.9167 9.42242 12.9167 10.417V12.917ZM17.5 12.0837C17.5 12.4152 17.3683 12.7331 17.1339 12.9675C16.8995 13.202 16.5815 13.3337 16.25 13.3337H13.7083C13.7362 13.1965 13.7501 13.0569 13.75 12.917V10.417C13.7505 9.37385 13.3931 8.36211 12.7375 7.55074C13.2106 7.25874 13.7531 7.09835 14.3089 7.08613C14.8647 7.07392 15.4137 7.21033 15.8992 7.48126C16.3847 7.7522 16.789 8.14784 17.0704 8.62731C17.3518 9.10678 17.5001 9.6527 17.5 10.2087V12.0837Z" fill="#D16DF2"/>
</svg>
