<svg width="20" height="20" viewBox="0 0 20 20" fill="none" xmlns="http://www.w3.org/2000/svg">
<path d="M14.8039 10.8052L12.4445 13.1647L11.4719 12.1921C11.2432 11.9633 10.8721 11.9633 10.6434 12.1922C10.4145 12.421 10.4145 12.7921 10.6434 13.0209L12.0304 14.4076C12.0847 14.4621 12.1493 14.5054 12.2204 14.5348C12.2915 14.5643 12.3677 14.5794 12.4446 14.5793C12.5946 14.5793 12.7445 14.5221 12.8589 14.4076L15.6327 11.6339C15.8616 11.4052 15.8616 11.0341 15.6327 10.8054C15.4038 10.5765 15.0329 10.5765 14.8039 10.8052Z" fill="#D16DF2"/>
<path d="M17.4529 7.17422H13.7239V2.54715C13.7239 1.14273 12.5812 0 11.1766 0H2.54695C1.14258 0 0 1.14273 0 2.54715V8.31727C0 9.52012 0.838281 10.5302 1.96105 10.7956V12.2398C1.96112 12.3952 2.02287 12.5442 2.13274 12.6541C2.24261 12.764 2.39161 12.8257 2.54699 12.8258C2.69941 12.8258 2.84926 12.7663 2.96145 12.6541L4.75113 10.8646H6.27625V15.4915C6.27625 16.8961 7.41883 18.0386 8.82324 18.0386H15.2489L17.0384 19.8283C17.1204 19.9103 17.2248 19.9661 17.3384 19.9887C17.4521 20.0114 17.5699 19.9998 17.677 19.9554C17.7841 19.9111 17.8756 19.836 17.94 19.7396C18.0044 19.6432 18.0388 19.53 18.0388 19.4141V17.9707C19.1618 17.7054 20 16.6945 20 15.4915V9.72137C20 8.3168 18.8573 7.17422 17.4529 7.17422ZM4.50836 9.6927C4.35289 9.6927 4.20379 9.75434 4.0941 9.86418L3.13293 10.8252V10.2786C3.13293 9.955 2.87063 9.6927 2.54699 9.6927C1.78879 9.6927 1.17188 9.07562 1.17188 8.31727V2.54715C1.17188 1.78879 1.78879 1.17188 2.54699 1.17188H11.1766C11.935 1.17188 12.552 1.78879 12.552 2.54715V7.17422H8.82324C7.42844 7.17422 6.29238 8.30141 6.27684 9.6927H4.50836ZM18.8281 15.4915C18.8281 16.2498 18.2112 16.8668 17.4529 16.8668C17.1292 16.8668 16.8669 17.1292 16.8669 17.4527V17.9994L15.9059 17.0384C15.8515 16.984 15.7869 16.9408 15.7158 16.9113C15.6447 16.8819 15.5685 16.8667 15.4915 16.8668H8.82324C8.06504 16.8668 7.44812 16.2498 7.44812 15.4915V9.72137C7.44812 8.96301 8.06504 8.34609 8.82324 8.34609H17.4529C18.2112 8.34609 18.8281 8.96301 18.8281 9.72137V15.4915Z" fill="#D16DF2"/>
</svg>
