<svg width="20" height="20" viewBox="0 0 20 20" fill="none" xmlns="http://www.w3.org/2000/svg">
<path d="M14.5 20C11.4674 20 9 17.5326 9 14.5C9 11.4674 11.4674 9 14.5 9C17.5326 9 20 11.4674 20 14.5C20 17.5326 17.5326 20 14.5 20ZM14.5 10.2692C12.1672 10.2692 10.2692 12.1672 10.2692 14.5C10.2692 16.8328 12.1672 18.7308 14.5 18.7308C16.8328 18.7308 18.7308 16.8328 18.7308 14.5C18.7308 12.1672 16.8328 10.2692 14.5 10.2692Z" fill="#D16DF2"/>
<path d="M14.5833 17.5C14.4175 17.5 14.2585 17.4341 14.1413 17.3169C14.0241 17.1997 13.9583 17.0407 13.9583 16.875V12.2916C13.9583 12.1259 14.0241 11.9669 14.1413 11.8497C14.2585 11.7325 14.4175 11.6666 14.5833 11.6666C14.749 11.6666 14.908 11.7325 15.0252 11.8497C15.1424 11.9669 15.2083 12.1259 15.2083 12.2916V16.875C15.2083 17.0407 15.1424 17.1997 15.0252 17.3169C14.908 17.4341 14.749 17.5 14.5833 17.5Z" fill="#D16DF2"/>
<path d="M17.3571 15.6429H12.6429C12.4724 15.6429 12.3088 15.5751 12.1883 15.4546C12.0677 15.334 12 15.1705 12 15C12 14.8295 12.0677 14.666 12.1883 14.5454C12.3088 14.4249 12.4724 14.3571 12.6429 14.3571H17.3571C17.5276 14.3571 17.6912 14.4249 17.8117 14.5454C17.9323 14.666 18 14.8295 18 15C18 15.1705 17.9323 15.334 17.8117 15.4546C17.6912 15.5751 17.5276 15.6429 17.3571 15.6429ZM7.87714 18H2.35714C1.73213 17.9995 1.13284 17.7511 0.690893 17.3091C0.248941 16.8672 0.00045406 16.2679 0 15.6429L0 2.35714C0.00045406 1.73213 0.248941 1.13284 0.690893 0.690893C1.13284 0.248941 1.73213 0.00045406 2.35714 0L12.2143 0C12.8393 0.00045406 13.4386 0.248941 13.8805 0.690893C14.3225 1.13284 14.571 1.73213 14.5714 2.35714V7.57714C14.5714 7.74764 14.5037 7.91115 14.3831 8.03171C14.2626 8.15227 14.0991 8.22 13.9286 8.22C13.7581 8.22 13.5946 8.15227 13.474 8.03171C13.3534 7.91115 13.2857 7.74764 13.2857 7.57714V2.35714C13.2857 1.76657 12.8049 1.28571 12.2143 1.28571H2.35714C1.76657 1.28571 1.28571 1.76657 1.28571 2.35714V15.6429C1.28571 16.2334 1.76657 16.7143 2.35714 16.7143H7.87714C8.04764 16.7143 8.21115 16.782 8.33171 16.9026C8.45227 17.0231 8.52 17.1866 8.52 17.3571C8.52 17.5276 8.45227 17.6912 8.33171 17.8117C8.21115 17.9323 8.04764 18 7.87714 18Z" fill="#D16DF2"/>
<path d="M11.3182 7.63158H2.68182C2.50099 7.63158 2.32757 7.56504 2.1997 7.44659C2.07183 7.32815 2 7.16751 2 7C2 6.83249 2.07183 6.67185 2.1997 6.55341C2.32757 6.43496 2.50099 6.36842 2.68182 6.36842H11.3182C11.499 6.36842 11.6724 6.43496 11.8003 6.55341C11.9282 6.67185 12 6.83249 12 7C12 7.16751 11.9282 7.32815 11.8003 7.44659C11.6724 7.56504 11.499 7.63158 11.3182 7.63158ZM7.68182 11H2.68182C2.50099 11 2.32757 10.9335 2.1997 10.815C2.07183 10.6966 2 10.5359 2 10.3684C2 10.2009 2.07183 10.0403 2.1997 9.92183C2.32757 9.80338 2.50099 9.73684 2.68182 9.73684H7.68182C7.86265 9.73684 8.03607 9.80338 8.16394 9.92183C8.2918 10.0403 8.36364 10.2009 8.36364 10.3684C8.36364 10.5359 8.2918 10.6966 8.16394 10.815C8.03607 10.9335 7.86265 11 7.68182 11ZM6.77273 4.26316H2.68182C2.50099 4.26316 2.32757 4.19662 2.1997 4.07817C2.07183 3.95973 2 3.79908 2 3.63158C2 3.46407 2.07183 3.30343 2.1997 3.18499C2.32757 3.06654 2.50099 3 2.68182 3H6.77273C6.95356 3 7.12698 3.06654 7.25485 3.18499C7.38271 3.30343 7.45455 3.46407 7.45455 3.63158C7.45455 3.79908 7.38271 3.95973 7.25485 4.07817C7.12698 4.19662 6.95356 4.26316 6.77273 4.26316Z" fill="#D16DF2"/>
</svg>
