<svg width="21" height="24" viewBox="0 0 21 24" fill="none" xmlns="http://www.w3.org/2000/svg">
<path d="M19.5006 16.4634L18.106 15.0427C17.9117 14.8459 17.8031 14.5804 17.8037 14.3039V10.0078C17.8037 6.54 15.4885 3.60328 12.3226 2.66109C12.3512 2.51859 12.3662 2.37281 12.3662 2.22656C12.3662 0.998906 11.3673 0 10.1396 0C8.91198 0 7.91307 0.998906 7.91307 2.22656C7.91307 2.37422 7.9276 2.51953 7.95526 2.66156C4.79026 3.60422 2.47557 6.54047 2.47557 10.0078V14.3039C2.47557 14.5819 2.36823 14.8444 2.17323 15.0427L0.778696 16.4634C0.00432068 17.2519 -0.211304 18.375 0.216665 19.3945C0.644165 20.4136 1.59666 21.0469 2.70198 21.0469H6.81245C7.01026 22.7077 8.42635 24 10.1396 24C11.8529 24 13.269 22.7077 13.4668 21.0469H17.5773C18.6826 21.0469 19.6351 20.4136 20.0626 19.3945C20.4906 18.375 20.2749 17.2519 19.5006 16.4634Z" fill="#FCFCFC"/>
</svg>