<svg width="21" height="24" viewBox="0 0 21 24" fill="none" xmlns="http://www.w3.org/2000/svg">
<path d="M19.5006 16.4634L18.106 15.0427C17.9117 14.8459 17.8031 14.5804 17.8037 14.3039V10.0078C17.8037 6.54 15.4885 3.60328 12.3226 2.66109C12.3512 2.51859 12.3662 2.37281 12.3662 2.22656C12.3662 0.998906 11.3673 0 10.1396 0C8.91198 0 7.91307 0.998906 7.91307 2.22656C7.91307 2.37422 7.9276 2.51953 7.95526 2.66156C4.79026 3.60422 2.47557 6.54047 2.47557 10.0078V14.3039C2.47557 14.5819 2.36823 14.8444 2.17323 15.0427L0.778696 16.4634C0.00432068 17.2519 -0.211304 18.375 0.216665 19.3945C0.644165 20.4136 1.59666 21.0469 2.70198 21.0469H6.81245C7.01026 22.7077 8.42635 24 10.1396 24C11.8529 24 13.269 22.7077 13.4668 21.0469H17.5773C18.6826 21.0469 19.6351 20.4136 20.0626 19.3945C20.4906 18.375 20.2749 17.2519 19.5006 16.4634ZM9.5537 2.22656C9.5537 1.90359 9.81666 1.64062 10.1396 1.64062C10.4626 1.64062 10.7256 1.90359 10.7256 2.22656C10.7256 2.27719 10.719 2.32266 10.7087 2.36484C10.5207 2.35125 10.3309 2.34375 10.1396 2.34375C9.94838 2.34375 9.75854 2.35125 9.57057 2.36484C9.56026 2.32313 9.5537 2.27719 9.5537 2.22656ZM10.1396 22.3594C9.33338 22.3594 8.65604 21.7987 8.47604 21.0469H11.8032C11.6232 21.7987 10.9459 22.3594 10.1396 22.3594ZM18.5499 18.7598C18.4862 18.9117 18.2279 19.4062 17.5773 19.4062H2.70198C2.05135 19.4062 1.79307 18.9112 1.72932 18.7598C1.66557 18.608 1.49354 18.0773 1.94916 17.6128L3.34416 16.192C3.84198 15.6848 4.1162 15.0145 4.1162 14.3039V10.0078C4.1162 6.68672 6.81807 3.98438 10.1396 3.98438C13.4612 3.98438 16.1631 6.68672 16.1631 10.0078V14.3039C16.1631 15.0145 16.4373 15.6848 16.9351 16.192L18.3301 17.6128C18.7857 18.0769 18.6137 18.608 18.5499 18.7598Z" fill="#FCFCFC"/>
</svg>
