<svg width="21" height="20" viewBox="0 0 21 20" fill="none" xmlns="http://www.w3.org/2000/svg">
<path d="M19.9499 8.99997H11.55V0.999934C11.55 0.448077 11.0795 0 10.4999 0C9.92045 0 9.44997 0.448077 9.44997 0.999934V8.99997H1.04993C0.470481 8.99997 0 9.44805 0 9.99991C0 10.552 0.470481 11 1.04993 11H9.44997V18.9999C9.44997 19.5519 9.92045 20 10.4999 20C11.0795 20 11.55 19.5519 11.55 18.9999V11H19.9499C20.5295 11 21 10.552 21 9.99991C21 9.44805 20.5295 8.99997 19.9499 8.99997Z" fill="currentColor"/>
</svg>
