<svg width="24" height="24" viewBox="0 0 24 24" fill="none" xmlns="http://www.w3.org/2000/svg">
<path d="M5.62464 21C5.37805 20.999 5.13479 20.942 4.91272 20.8332C4.64051 20.7033 4.41021 20.4976 4.24863 20.24C4.08705 19.9824 4.00083 19.6835 4 19.3781V3.62205C4.00119 3.40705 4.04422 3.19441 4.12663 2.99635C4.20903 2.7983 4.32918 2.61874 4.48017 2.46801C4.63115 2.31728 4.80999 2.19834 5.00641 2.11804C5.20282 2.03774 5.41292 1.99766 5.62464 2.00011H18.4027C18.8256 2.00254 19.2305 2.1742 19.5295 2.47785C19.8286 2.7815 19.9976 3.19263 20 3.62205V19.3781C19.9941 19.6716 19.9098 19.9579 19.7562 20.2066C19.6026 20.4553 19.3854 20.657 19.1277 20.7902C18.8701 20.9234 18.5817 20.9831 18.2933 20.9629C18.0048 20.9427 17.7272 20.8434 17.49 20.6756L12.1962 16.6439C12.1574 16.6123 12.1091 16.5951 12.0593 16.5951C12.0096 16.5951 11.9613 16.6123 11.9224 16.6439L6.583 20.6756C6.30591 20.885 5.97003 20.9987 5.62464 21ZM5.62464 3.39034C5.56413 3.39034 5.50609 3.41475 5.4633 3.45821C5.4205 3.50166 5.39646 3.5606 5.39646 3.62205V19.3781C5.39614 19.4209 5.40803 19.463 5.4307 19.4992C5.45337 19.5353 5.48586 19.5641 5.52424 19.582C5.55918 19.6063 5.60055 19.6193 5.6429 19.6193C5.68525 19.6193 5.72661 19.6063 5.76155 19.582L11.101 15.5317C11.3786 15.324 11.7144 15.2119 12.0593 15.2119C12.4042 15.2119 12.74 15.324 13.0177 15.5317L18.3115 19.5634C18.3464 19.5877 18.3878 19.6007 18.4301 19.6007C18.4725 19.6007 18.5138 19.5877 18.5488 19.5634C18.5872 19.5456 18.6196 19.5168 18.6423 19.4806C18.665 19.4445 18.6769 19.4024 18.6766 19.3595V3.62205C18.6772 3.5873 18.6702 3.55283 18.656 3.52121C18.6418 3.48958 18.6208 3.46161 18.5945 3.43936C18.5682 3.4171 18.5373 3.40114 18.5041 3.39266C18.4709 3.38417 18.4363 3.38338 18.4027 3.39034H5.62464Z" fill="#4A4A4A"/>
</svg>
