<svg width="29" height="23" viewBox="0 0 29 23" fill="none" xmlns="http://www.w3.org/2000/svg">
<path fill-rule="evenodd" clip-rule="evenodd" d="M0 1.60714C0 1.1809 0.169323 0.772119 0.470721 0.470722C0.772119 0.169324 1.1809 0 1.60714 0H27.3214C27.7477 0 28.1565 0.169324 28.4578 0.470722C28.7592 0.772119 28.9286 1.1809 28.9286 1.60714C28.9286 2.03338 28.7592 2.44217 28.4578 2.74356C28.1565 3.04496 27.7477 3.21429 27.3214 3.21429H1.60714C1.1809 3.21429 0.772119 3.04496 0.470721 2.74356C0.169323 2.44217 0 2.03338 0 1.60714ZM0 11.25C0 10.8238 0.169323 10.415 0.470721 10.1136C0.772119 9.81218 1.1809 9.64286 1.60714 9.64286H17.6786C18.1048 9.64286 18.5136 9.81218 18.815 10.1136C19.1164 10.415 19.2857 10.8238 19.2857 11.25C19.2857 11.6762 19.1164 12.085 18.815 12.3864C18.5136 12.6878 18.1048 12.8571 17.6786 12.8571H1.60714C1.1809 12.8571 0.772119 12.6878 0.470721 12.3864C0.169323 12.085 0 11.6762 0 11.25ZM0 20.8929C0 20.4666 0.169323 20.0578 0.470721 19.7564C0.772119 19.455 1.1809 19.2857 1.60714 19.2857H9.64286C10.0691 19.2857 10.4779 19.455 10.7793 19.7564C11.0807 20.0578 11.25 20.4666 11.25 20.8929C11.25 21.3191 11.0807 21.7279 10.7793 22.0293C10.4779 22.3307 10.0691 22.5 9.64286 22.5H1.60714C1.1809 22.5 0.772119 22.3307 0.470721 22.0293C0.169323 21.7279 0 21.3191 0 20.8929Z" fill="currentColor"/>
</svg>
