<svg width="18" height="22" viewBox="0 0 18 22" fill="none" xmlns="http://www.w3.org/2000/svg">
<path d="M8.86389 10.5975C10.2916 10.5975 11.5278 10.0753 12.5381 9.04505C13.5482 8.015 14.0604 6.75464 14.0604 5.29861C14.0604 3.843 13.5483 2.58251 12.538 1.55207C11.5276 0.522156 10.2915 0 8.86389 0C7.43595 0 6.1999 0.522156 5.18976 1.55225C4.17962 2.58234 3.66735 3.84287 3.66735 5.29861C3.66735 6.75464 4.17958 8.01518 5.18981 9.04527C6.20028 10.0752 7.43646 10.5975 8.86385 10.5975H8.86389ZM6.0839 2.46383C6.85899 1.67342 7.7683 1.28923 8.86389 1.28923C9.95932 1.28923 10.8688 1.67342 11.644 2.46383C12.4192 3.25437 12.7961 4.18172 12.7961 5.29856C12.7961 6.41575 12.4192 7.34297 11.644 8.13351C10.8688 8.92409 9.95932 9.30828 8.86389 9.30828C7.76859 9.30828 6.85937 8.92392 6.0839 8.13351C5.30859 7.34314 4.93167 6.41579 4.93167 5.29861C4.93167 4.18172 5.30859 3.25437 6.0839 2.46383ZM17.9564 16.9169C17.9272 16.4883 17.8683 16.0206 17.7816 15.5268C17.694 15.0293 17.5813 14.559 17.4463 14.1292C17.3067 13.6849 17.1172 13.2461 16.8827 12.8257C16.6395 12.3893 16.3538 12.0092 16.0331 11.6966C15.6979 11.3694 15.2873 11.1064 14.8126 10.9145C14.3396 10.7238 13.8153 10.6271 13.2545 10.6271C13.0342 10.6271 12.8213 10.7192 12.4099 10.9923C12.1175 11.1865 11.8242 11.3793 11.5301 11.5707C11.2475 11.7543 10.8646 11.9264 10.3917 12.0821C9.93033 12.2344 9.46188 12.3116 8.99933 12.3116C8.53715 12.3116 8.06866 12.2344 7.60695 12.0821C7.13458 11.9265 6.75154 11.7545 6.46938 11.5708C6.14196 11.3575 5.84573 11.1628 5.58877 10.9921C5.17775 10.719 4.96474 10.6269 4.74453 10.6269C4.18354 10.6269 3.65947 10.7237 3.18655 10.9148C2.71215 11.1063 2.30147 11.3693 1.96584 11.6967C1.64521 12.0096 1.35947 12.3894 1.1165 12.8257C0.882293 13.2461 0.692671 13.6847 0.553066 14.1293C0.418223 14.5592 0.305503 15.0293 0.21794 15.5268C0.131008 16.02 0.0722673 16.4878 0.0431076 16.9174C0.0144535 17.3375 0 17.7748 0 18.2166C0 19.365 0.358008 20.2947 1.06399 20.9803C1.76126 21.657 2.68371 22 3.80577 22H14.1942C15.316 22 16.2384 21.6569 16.9358 20.9804C17.642 20.2952 18 19.3652 18 18.2164C17.9998 17.7731 17.9852 17.3359 17.9564 16.9169ZM16.0641 20.0463C15.6034 20.4934 14.9917 20.7108 14.194 20.7108H3.80581C3.00801 20.7108 2.39633 20.4934 1.93575 20.0465C1.48395 19.6078 1.26436 19.0092 1.26436 18.2166C1.26436 17.8043 1.27768 17.3973 1.30439 17.0066C1.33035 16.6232 1.38353 16.2021 1.46241 15.7546C1.54024 15.3126 1.63931 14.8979 1.75717 14.5224C1.87027 14.1624 2.0245 13.8059 2.21576 13.4625C2.39831 13.1352 2.60832 12.8544 2.84009 12.6281C3.05689 12.4165 3.33015 12.2433 3.65209 12.1134C3.94984 11.9931 4.2845 11.9274 4.64778 11.9174C4.69202 11.9415 4.77091 11.9873 4.89863 12.0722C5.15854 12.2449 5.4581 12.442 5.78931 12.6576C6.16265 12.9004 6.64358 13.1196 7.21822 13.3087C7.80567 13.5024 8.40484 13.6008 8.99954 13.6008C9.59428 13.6008 10.1936 13.5024 10.7807 13.3089C11.3558 13.1194 11.8366 12.9004 12.2105 12.6573C12.5494 12.4364 12.8406 12.2451 13.1004 12.0722C13.2282 11.9874 13.307 11.9414 13.3513 11.9175C13.7148 11.9274 14.0494 11.9931 14.3473 12.1133C14.6691 12.2433 14.9424 12.4166 15.1592 12.6281C15.3909 12.8542 15.6009 13.135 15.7835 13.4627C15.9749 13.8059 16.1294 14.1626 16.2422 14.5223C16.3603 14.8983 16.4595 15.3128 16.5372 15.7544C16.6159 16.2027 16.6692 16.6241 16.6952 17.0067V17.0071C16.7221 17.3963 16.7356 17.8032 16.7357 18.2166C16.7356 19.0093 16.516 19.6079 16.0642 20.0463H16.0641Z" fill="currentColor"/>
</svg>
