<svg width="18" height="22" viewBox="0 0 18 22" fill="none" xmlns="http://www.w3.org/2000/svg">
<path d="M8.86389 0C7.43595 0 6.1999 0.522156 5.18976 1.55225C4.17962 2.58234 3.66735 3.84287 3.66735 5.29861C3.66735 6.75464 4.17958 8.01518 5.18981 9.04527C6.20028 10.0752 7.43646 10.5975 8.86385 10.5975C10.2916 10.5975 11.5278 10.0753 12.5381 9.04505C13.5482 8.015 14.0604 6.75464 14.0604 5.29861C14.0604 3.843 13.5483 2.58251 12.538 1.55207C11.5276 0.522156 10.2915 0 8.86389 0Z" fill="currentColor"/>
<path d="M17.9564 16.9169C17.9272 16.4883 17.8683 16.0206 17.7816 15.5268C17.694 15.0293 17.5813 14.559 17.4463 14.1292C17.3067 13.6849 17.1172 13.2461 16.8827 12.8257C16.6395 12.3893 16.3538 12.0092 16.0331 11.6966C15.6979 11.3694 15.2873 11.1064 14.8126 10.9145C14.3396 10.7238 13.8153 10.6271 13.2545 10.6271C13.0342 10.6271 12.8213 10.7192 12.4099 10.9923C12.1175 11.1865 11.8242 11.3793 11.5301 11.5707C11.2475 11.7543 10.8646 11.9264 10.3917 12.0821C9.93033 12.2344 9.46188 12.3116 8.99933 12.3116C8.53715 12.3116 8.06866 12.2344 7.60695 12.0821C7.13458 11.9265 6.75154 11.7545 6.46938 11.5708C6.14196 11.3575 5.84573 11.1628 5.58877 10.9921C5.17775 10.719 4.96474 10.6269 4.74453 10.6269C4.18354 10.6269 3.65947 10.7237 3.18655 10.9148C2.71215 11.1063 2.30147 11.3693 1.96584 11.6967C1.64521 12.0096 1.35947 12.3894 1.1165 12.8257C0.882293 13.2461 0.692671 13.6847 0.553066 14.1293C0.418223 14.5592 0.305503 15.0293 0.21794 15.5268C0.131008 16.02 0.0722673 16.4878 0.0431076 16.9174C0.0144535 17.3375 0 17.7748 0 18.2166C0 19.365 0.358008 20.2947 1.06399 20.9803C1.76126 21.657 2.68371 22 3.80577 22H14.1942C15.316 22 16.2384 21.6569 16.9358 20.9804C17.642 20.2952 18 19.3652 18 18.2164C17.9998 17.7731 17.9852 17.3359 17.9564 16.9169Z" fill="currentColor"/>
</svg>